# File created by Blade
# Date/Time:  Tue Sep 28 14:35:47 2010
#---------------------------------------------------------
:version 1.10
:name HOM
:units
  mass 1.0
  length 1.000000
  angle deg
:documentation
     Acclaim Skeleton File
:root
   axis xyz
   order TX TY TZ RX RY RZ
   position 0.000000 0.000000 0.000000
   orientation 0 0 0
:bonedata
   begin
      id 1
      name LeftUpLeg_dum
      direction 1.000000 0.000000 0.000000
      length 3.677894
      axis 0.0 0.0 0.0 xyz
   end
   begin
      id 2
      name RightUpLeg_dum
      direction -1.000000 0.000000 0.000000
      length 3.677894
      axis 0.0 0.0 0.0 xyz
   end
   begin
      id 3
      name Spine_dum
      direction 0.000000 1.000000 0.000000
      length 0.039370
      axis 0.0 0.0 0.0 xyz
   end
   begin
      id 4
      name LeftUpLeg
      direction 0.000000 -1.000000 0.000000
      length 18.389491
      axis 0.0 0.0 0.0 xyz
      dof rx ry rz
   end
   begin
      id 5
      name LeftLeg
      direction 0.000000 -1.000000 0.000000
      length 16.918313
      axis 0.0 0.0 0.0 xyz
      dof rx ry rz
   end
   begin
      id 6
      name LeftFoot
      direction 0.000000 -0.258819 0.965926
      length 6.436326
      axis 15.0 0.0 0.0 xyz
      dof rx ry rz
   end
   begin
      id 7
      name LeftToeBase
      direction 0.000000 0.000000 1.000000
      length 2.952750
      axis 0.0 0.0 0.0 xyz
      dof rx ry rz
   end
   begin
      id 8
      name RightUpLeg
      direction 0.000000 -1.000000 0.000000
      length 18.389491
      axis 0.0 0.0 0.0 xyz
      dof rx ry rz
   end
   begin
      id 9
      name RightLeg
      direction 0.000000 -1.000000 0.000000
      length 16.918313
      axis 0.0 0.0 0.0 xyz
      dof rx ry rz
   end
   begin
      id 10
      name RightFoot
      direction 0.000000 -0.258819 0.965926
      length 6.436326
      axis 15.0 0.0 0.0 xyz
      dof rx ry rz
   end
   begin
      id 11
      name RightToeBase
      direction 0.000000 0.000000 1.000000
      length 2.952750
      axis 0.0 0.0 0.0 xyz
      dof rx ry rz
   end
   begin
      id 12
      name Spine
      direction 0.000000 1.000000 0.000000
      length 9.194745
      axis 0.0 0.0 0.0 xyz
      dof rx ry rz
   end
   begin
      id 13
      name Spine1
      direction 0.000000 1.000000 0.000000
      length 0.000000
      axis 0.0 0.0 0.0 xyz
      dof rx ry rz
   end
   begin
      id 14
      name Spine1_dum1
      direction 0.000000 1.000000 0.000000
      length 9.194745
      axis 0.0 0.0 0.0 xyz
   end
   begin
      id 15
      name Spine1_dum2
      direction 0.000000 1.000000 0.000000
      length 9.194745
      axis 0.0 0.0 0.0 xyz
   end
   begin
      id 16
      name Spine1_dum3
      direction 0.000000 1.000000 0.000000
      length 9.194745
      axis 0.0 0.0 0.0 xyz
   end
   begin
      id 17
      name Neck
      direction 0.000000 1.000000 0.000000
      length 4.229598
      axis 0.0 0.0 0.0 xyz
      dof rx ry rz
   end
   begin
      id 18
      name Head
      direction 0.000000 1.000000 0.000000
      length 4.527550
      axis 0.0 0.0 0.0 xyz
      dof rx ry rz
   end
   begin
      id 19
      name LeftShoulder
      direction 1.000000 -0.000004 0.000000
      length 5.516839
      axis 0.0 0.0 -90.0 xyz
      dof rx ry rz
   end
   begin
      id 20
      name LeftArm
      direction 1.000000 -0.000004 0.000000
      length 11.033679
      axis 0.0 0.0 -90.0 xyz
      dof rx ry rz
   end
   begin
      id 21
      name LeftForeArm
      direction 1.000000 -0.000004 0.000000
      length 10.114232
      axis 0.0 0.0 -90.0 xyz
      dof rx ry rz
   end
   begin
      id 22
      name LeftHand
      direction 0.000000 0.000000 0.000000
      length 0.000000
      axis 0.0 0.0 -90.0 xyz
      dof rx ry rz
   end
   begin
      id 23
      name LeftHand_dum1
      direction 0.000000 0.000000 0.000000
      length 0.000000
      axis 0.0 0.0 -90.0 xyz
   end
   begin
      id 24
      name LeftHand_dum2
      direction 1.000000 -0.000004 0.000000
      length 3.937000
      axis 0.0 0.0 -90.0 xyz
   end
   begin
      id 25
      name LeftHandThumb
      direction 0.000000 0.000000 1.000000
      length 3.937000
      axis 0.0 0.0 -90.0 xyz
      dof rx ry rz
   end
   begin
      id 26
      name RightShoulder
      direction -1.000000 -0.000004 0.000000
      length 5.516839
      axis 0.0 0.0 90.0 xyz
      dof rx ry rz
   end
   begin
      id 27
      name RightArm
      direction -1.000000 -0.000004 0.000000
      length 11.033679
      axis 0.0 0.0 90.0 xyz
      dof rx ry rz
   end
   begin
      id 28
      name RightForeArm
      direction -1.000000 -0.000004 0.000000
      length 10.114232
      axis 0.0 0.0 90.0 xyz
      dof rx ry rz
   end
   begin
      id 29
      name RightHand
      direction 0.000000 0.000000 0.000000
      length 0.000000
      axis 0.0 0.0 90.0 xyz
      dof rx ry rz
   end
   begin
      id 30
      name RightHand_dum1
      direction 0.000000 0.000000 0.000000
      length 0.000000
      axis 0.0 0.0 90.0 xyz
   end
   begin
      id 31
      name RightHand_dum2
      direction -1.000000 -0.000004 0.000000
      length 5.393690
      axis 0.0 0.0 90.0 xyz
   end
   begin
      id 32
      name RightHandThumb
      direction 0.000000 0.000000 1.000000
      length 3.937000
      axis 0.0 0.0 90.0 xyz
      dof rx ry rz
   end
:hierarchy
   begin
      root LeftUpLeg_dum RightUpLeg_dum Spine_dum
      LeftUpLeg_dum LeftUpLeg
      RightUpLeg_dum RightUpLeg
      Spine_dum Spine
      LeftUpLeg LeftLeg
      LeftLeg LeftFoot
      LeftFoot LeftToeBase
      RightUpLeg RightLeg
      RightLeg RightFoot
      RightFoot RightToeBase
      Spine Spine1
      Spine1 Spine1_dum1 Spine1_dum2 Spine1_dum3
      Spine1_dum1 Neck
      Spine1_dum2 LeftShoulder
      Spine1_dum3 RightShoulder
      Neck Head
      LeftShoulder LeftArm
      LeftArm LeftForeArm
      LeftForeArm LeftHand
      LeftHand LeftHand_dum1 LeftHand_dum2
      LeftHand_dum1 LeftHandThumb
      RightShoulder RightArm
      RightArm RightForeArm
      RightForeArm RightHand
      RightHand RightHand_dum1 RightHand_dum2
      RightHand_dum1 RightHandThumb
   end

# File created by Blade
# Date/Time:  Tue Sep 28 14:35:42 2010
# Frame Rate: 200.000 fps
#------------------------------------------------------
:FULLY-SPECIFIED
:DEGREES
1
root  0.641048 37.950782 -82.891229 8.440802 -0.635379 -3.569144
LeftUpLeg  -9.930891 5.465221 1.623570
LeftLeg  13.069231 -0.000000 0.000000
LeftFoot  -0.507259 14.212539 5.999911
LeftToeBase  -4.545129 0.000000 0.000000
RightUpLeg  -11.827570 -27.747811 8.610438
RightLeg  11.950499 -0.000000 0.000000
RightFoot  0.948959 9.052186 -15.601252
RightToeBase  -7.896244 0.000000 -0.000000
Spine  -14.433342 -2.027037 0.476180
Spine1  8.983723 -0.564184 2.793936
Neck  12.856053 2.720890 -2.378735
Head  -16.194490 4.427562 3.388707
LeftShoulder  -10.979403 -11.966022 -9.810555
LeftArm  -0.782157 -18.404808 -3.445526
LeftForeArm  7.331326 -0.000000 0.000000
LeftHand  5.290868 15.121321 11.687614
LeftHandThumb  0.000000 -0.000000 0.000000
RightShoulder  -0.293021 11.305697 6.499273
RightArm  -0.672986 4.574895 3.980599
RightForeArm  3.023676 -0.000000 0.000000
RightHand  1.386506 -8.797928 -7.744224
RightHandThumb  0.000000 -0.000000 0.000000
2
root  0.644041 37.950441 -82.888624 8.455587 -0.708891 -3.557371
LeftUpLeg  -9.908702 4.581684 1.672534
LeftLeg  12.990226 -0.000000 0.000000
LeftFoot  0.446808 15.056899 6.186366
LeftToeBase  -8.611858 0.000000 -0.000000
RightUpLeg  -11.909663 -28.842746 8.732971
RightLeg  11.931194 -0.000000 0.000000
RightFoot  0.747048 10.276887 -15.484796
RightToeBase  -8.118246 0.000000 -0.000000
Spine  -14.328294 -2.052412 0.490470
Spine1  8.640707 -0.584606 2.738384
Neck  13.050475 3.213937 -2.347140
Head  -15.948196 4.780187 3.545154
LeftShoulder  -11.059288 -9.311696 -10.116534
LeftArm  -0.502072 -21.523254 -3.924298
LeftForeArm  7.391935 -0.000000 0.000000
LeftHand  5.029590 21.176409 15.280485
LeftHandThumb  0.000000 -0.000000 0.000000
RightShoulder  -0.205292 11.154129 6.554870
RightArm  -0.678681 4.303429 4.089734
RightForeArm  3.884627 -0.000000 0.000000
RightHand  -2.820785 -10.635562 -8.687077
RightHandThumb  0.000000 -0.000000 0.000000
3
root  0.650276 37.948521 -82.888451 8.454075 -0.686650 -3.536305
LeftUpLeg  -9.859400 4.187434 1.685819
LeftLeg  12.865738 -0.000000 0.000000
LeftFoot  0.459158 15.249235 5.805222
LeftToeBase  -9.197004 0.000000 -0.000000
RightUpLeg  -11.968271 -29.280605 8.763328
RightLeg  11.997771 -0.000000 0.000000
RightFoot  0.514961 10.587117 -15.937328
RightToeBase  -7.775041 0.000000 -0.000000
Spine  -14.199607 -2.021173 0.511667
Spine1  8.417700 -0.556483 2.704787
Neck  13.265102 2.933660 -2.326700
Head  -16.130819 4.738197 3.383346
LeftShoulder  -11.044522 -9.855607 -10.015574
LeftArm  -0.603777 -20.773530 -3.779759
LeftForeArm  7.394914 -0.000000 0.000000
LeftHand  5.054547 18.848705 13.553019
LeftHandThumb  0.000000 -0.000000 0.000000
RightShoulder  -0.155675 11.211172 6.532124
RightArm  -0.785988 4.564478 4.019655
RightForeArm  3.289009 -0.000000 0.000000
RightHand  -0.360261 -9.981323 -8.086918
RightHandThumb  0.000000 -0.000000 0.000000
4
root  0.650276 37.948521 -82.888451 8.454075 -0.686650 -3.536305
LeftUpLeg  -9.859400 4.187434 1.685819
LeftLeg  12.865738 -0.000000 0.000000
LeftFoot  0.459158 15.249235 5.805222
LeftToeBase  -9.197004 0.000000 -0.000000
RightUpLeg  -11.968271 -29.280605 8.763328
RightLeg  11.997771 -0.000000 0.000000
RightFoot  0.514961 10.587117 -15.937328
RightToeBase  -7.775041 0.000000 -0.000000
Spine  -14.199607 -2.021173 0.511667
Spine1  8.417700 -0.556483 2.704787
Neck  13.265102 2.933660 -2.326700
Head  -16.130819 4.738197 3.383346
LeftShoulder  -11.044522 -9.855607 -10.015574
LeftArm  -0.603777 -20.773530 -3.779759
LeftForeArm  7.394914 -0.000000 0.000000
LeftHand  5.054547 18.848705 13.553019
LeftHandThumb  0.000000 -0.000000 0.000000
RightShoulder  -0.155675 11.211172 6.532124
RightArm  -0.785988 4.564478 4.019655
RightForeArm  3.289009 -0.000000 0.000000
RightHand  -0.360261 -9.981323 -8.086918
RightHandThumb  0.000000 -0.000000 0.000000
5
root  0.650827 37.949773 -82.887096 8.453730 -0.684715 -3.534348
LeftUpLeg  -9.852316 4.163291 1.686574
LeftLeg  12.859529 -0.000000 0.000000
LeftFoot  0.466385 15.297181 5.825960
LeftToeBase  -9.259173 0.000000 -0.000000
RightUpLeg  -11.967152 -29.302501 8.759443
RightLeg  12.013296 -0.000000 0.000000
RightFoot  0.504050 10.608960 -15.897093
RightToeBase  -7.728920 0.000000 -0.000000
Spine  -14.184713 -2.017643 0.512059
Spine1  8.384056 -0.552357 2.697695
Neck  13.234563 3.137513 -2.298676
Head  -16.109174 4.901425 3.414383
LeftShoulder  -11.036493 -9.916254 -10.018761
LeftArm  -0.596605 -21.028642 -3.791702
LeftForeArm  7.388077 -0.000000 0.000000
LeftHand  5.190533 19.139028 13.952524
LeftHandThumb  0.000000 -0.000000 0.000000
RightShoulder  -0.148401 11.134606 6.542483
RightArm  -0.799776 4.222725 4.031051
RightForeArm  3.333708 -0.000000 0.000000
RightHand  -0.595469 -9.475738 -8.285063
RightHandThumb  0.000000 -0.000000 0.000000
6
root  0.651158 37.948603 -82.887144 8.450738 -0.688597 -3.531286
LeftUpLeg  -9.844115 4.123501 1.687318
LeftLeg  12.855469 -0.000000 0.000000
LeftFoot  0.468054 15.327740 5.788096
LeftToeBase  -9.250072 0.000000 -0.000000
RightUpLeg  -11.973532 -29.330884 8.760431
RightLeg  12.018897 -0.000000 0.000000
RightFoot  0.466308 10.648987 -16.044013
RightToeBase  -7.794697 0.000000 -0.000000
Spine  -14.168132 -2.019849 0.515366
Spine1  8.360439 -0.555138 2.690486
Neck  13.320519 2.838323 -2.337200
Head  -16.045082 4.624146 3.446189
LeftShoulder  -11.054067 -9.771922 -10.018537
LeftArm  -0.613724 -20.799287 -3.774333
LeftForeArm  7.412181 -0.000000 0.000000
LeftHand  5.082882 18.602387 13.492858
LeftHandThumb  0.000000 -0.000000 0.000000
RightShoulder  -0.153513 11.147224 6.536321
RightArm  -0.795863 4.802956 4.014663
RightForeArm  3.330837 -0.000000 0.000000
RightHand  -0.379356 -10.242726 -8.127761
RightHandThumb  0.000000 -0.000000 0.000000
7
root  0.651158 37.948603 -82.887144 8.450738 -0.688597 -3.531286
LeftUpLeg  -9.844115 4.123501 1.687318
LeftLeg  12.855469 -0.000000 0.000000
LeftFoot  0.468054 15.327740 5.788096
LeftToeBase  -9.250072 0.000000 -0.000000
RightUpLeg  -11.973532 -29.330884 8.760431
RightLeg  12.018897 -0.000000 0.000000
RightFoot  0.466308 10.648987 -16.044013
RightToeBase  -7.794697 0.000000 -0.000000
Spine  -14.168132 -2.019849 0.515366
Spine1  8.360439 -0.555138 2.690486
Neck  13.320519 2.838323 -2.337200
Head  -16.045082 4.624146 3.446189
LeftShoulder  -11.054067 -9.771922 -10.018537
LeftArm  -0.613724 -20.799287 -3.774333
LeftForeArm  7.412181 -0.000000 0.000000
LeftHand  5.082882 18.602387 13.492858
LeftHandThumb  0.000000 -0.000000 0.000000
RightShoulder  -0.153513 11.147224 6.536321
RightArm  -0.795863 4.802956 4.014663
RightForeArm  3.330837 -0.000000 0.000000
RightHand  -0.379356 -10.242726 -8.127761
RightHandThumb  0.000000 -0.000000 0.000000
8
root  0.651044 37.948300 -82.884962 8.451039 -0.688040 -3.529427
LeftUpLeg  -9.840031 4.109190 1.684957
LeftLeg  12.850761 -0.000000 0.000000
LeftFoot  0.465948 15.351586 5.753754
LeftToeBase  -9.247378 0.000000 -0.000000
RightUpLeg  -11.975349 -29.360392 8.762939
RightLeg  12.032236 -0.000000 0.000000
RightFoot  0.488457 10.656603 -15.878879
RightToeBase  -7.815489 0.000000 -0.000000
Spine  -14.152216 -2.017355 0.516118
Spine1  8.346084 -0.552729 2.683960
Neck  13.319910 2.976136 -2.335264
Head  -16.115315 4.749105 3.403621
LeftShoulder  -11.043075 -9.861993 -10.019312
LeftArm  -0.603259 -21.115963 -3.785135
LeftForeArm  7.393395 -0.000000 0.000000
LeftHand  5.167678 19.341872 13.946108
LeftHandThumb  0.000000 -0.000000 0.000000
RightShoulder  -0.147146 11.100929 6.541763
RightArm  -0.811064 4.377316 4.021440
RightForeArm  3.364154 -0.000000 0.000000
RightHand  -0.550862 -9.537720 -8.250721
RightHandThumb  0.000000 -0.000000 0.000000
